<svg width="25" height="25" viewBox="0 0 25 25" fill="none" xmlns="http://www.w3.org/2000/svg">
<path d="M24.8356 21.9952C23.2487 19.21 20.7707 17.0399 17.8006 15.8341C19.2776 14.7263 20.3686 13.1819 20.9191 11.4196C21.4696 9.6573 21.4517 7.76647 20.8678 6.01494C20.284 4.26341 19.1639 2.73998 17.6661 1.66045C16.1683 0.580911 14.3688 0 12.5226 0C10.6763 0 8.87681 0.580911 7.37903 1.66045C5.88126 2.73998 4.76112 4.26341 4.17727 6.01494C3.59343 7.76647 3.57549 9.6573 4.12599 11.4196C4.67648 13.1819 5.76752 14.7263 7.24454 15.8341C4.2744 17.0399 1.79642 19.21 0.209488 21.9952C0.111156 22.1533 0.0456187 22.3296 0.0167712 22.5136C-0.0120762 22.6975 -0.0036445 22.8854 0.0415653 23.066C0.086775 23.2466 0.16784 23.4163 0.27994 23.565C0.392041 23.7136 0.532889 23.8383 0.69411 23.9314C0.855332 24.0246 1.03364 24.0843 1.21842 24.1072C1.40321 24.1301 1.59071 24.1155 1.76977 24.0645C1.94883 24.0134 2.1158 23.9269 2.26075 23.81C2.4057 23.6932 2.52567 23.5483 2.61353 23.3842C4.71085 19.759 8.41473 17.5969 12.5226 17.5969C16.6304 17.5969 20.3343 19.7602 22.4316 23.3842C22.622 23.6904 22.924 23.9105 23.2738 23.998C23.6236 24.0856 23.9937 24.0337 24.3059 23.8533C24.6181 23.6729 24.8479 23.3782 24.9468 23.0315C25.0456 22.6847 25.0058 22.3131 24.8356 21.9952ZM6.50376 8.80017C6.50376 7.60977 6.85676 6.4461 7.51811 5.45631C8.17946 4.46653 9.11947 3.69508 10.2193 3.23953C11.3191 2.78398 12.5292 2.66479 13.6968 2.89703C14.8643 3.12926 15.9367 3.7025 16.7785 4.54424C17.6202 5.38599 18.1935 6.45843 18.4257 7.62597C18.6579 8.7935 18.5387 10.0037 18.0832 11.1035C17.6277 12.2033 16.8562 13.1433 15.8664 13.8046C14.8766 14.466 13.713 14.819 12.5226 14.819C10.9268 14.8171 9.397 14.1824 8.26866 13.0541C7.14031 11.9257 6.5056 10.3959 6.50376 8.80017Z" fill="white"/>
</svg>